<svg xmlns="http://www.w3.org/2000/svg" viewBox="0 0 64 64" role="img" aria-label="A O monogram icon">
  <defs>
    <linearGradient id="g" x1="0%" y1="0%" x2="100%" y2="100%">
      <stop offset="0%" stop-color="#818cf8" />
      <stop offset="100%" stop-color="#22d3ee" />
    </linearGradient>
  </defs>
  <rect width="64" height="64" rx="14" fill="#0a0a0f" />
  <path d="M18 48L28 16h8l10 32h-7l-2-7H27l-2 7h-7zm11-13h6l-3-11-3 11z" fill="url(#g)" />
  <path d="M42 48c-6 0-10-4-10-10s4-10 10-10 10 4 10 10-4 10-10 10zm0-6c2 0 4-2 4-4s-2-4-4-4-4 2-4 4 2 4 4 4z" fill="#e2e8f0" />
</svg>
